<svg width="23" height="18" viewBox="0 0 23 18" fill="none" xmlns="http://www.w3.org/2000/svg">
<path d="M20.2476 7.87502C20.2887 8.24865 20.3106 8.62413 20.3132 9C20.3133 10.6754 19.8456 12.3175 18.963 13.7415C18.0803 15.1656 16.8177 16.3149 15.3172 17.0603C13.8167 17.8057 12.138 18.1174 10.4699 17.9604C8.8019 17.8034 7.2108 17.184 5.87573 16.1717C8.18198 15.5905 10.8914 14.4374 13.5632 12.8999C16.2351 11.3625 18.5882 9.58124 20.2476 7.87502ZM22.357 2.62511C21.8414 1.7345 20.4539 0.900142 16.7507 1.82825C15.4157 0.816041 13.8246 0.19658 12.1565 0.0395984C10.4885 -0.117383 8.80974 0.194349 7.30926 0.939703C5.80878 1.68506 4.54615 2.83444 3.66349 4.25846C2.78084 5.68249 2.3132 7.32462 2.31323 9C2.31587 9.37587 2.33777 9.75136 2.37886 10.125C-0.274267 12.8624 -0.236767 14.4843 0.269483 15.3749C0.616358 15.9749 1.38511 16.5749 3.06323 16.5749C3.86846 16.5595 4.6698 16.459 5.45386 16.2749L5.87573 16.1717C5.39435 15.7982 4.94869 15.3808 4.54448 14.9249C2.79136 15.2343 1.79761 15.0186 1.57261 14.6249C1.43198 14.3812 1.50698 13.9218 1.78823 13.3687C2.06761 12.8457 2.40404 12.3552 2.79136 11.9062C3.17133 13.018 3.7671 14.0439 4.54448 14.9249L5.12573 14.803C7.37573 14.3062 10.1039 13.1624 12.8132 11.5968C15.5226 10.0312 17.8757 8.24064 19.432 6.54379C19.5741 6.40089 19.7086 6.25069 19.8351 6.0938C19.4551 4.98198 18.8594 3.95613 18.082 3.0751C18.6685 2.96072 19.2661 2.91355 19.8632 2.93448C20.482 2.97198 20.9132 3.13135 21.0539 3.3751C21.2789 3.76884 20.9695 4.73445 19.8351 6.0938C20.0264 6.67379 20.1645 7.26999 20.2476 7.87502L20.5382 7.56565C22.9101 4.98757 22.8351 3.45947 22.357 2.62511Z" fill="white"/>
</svg>
